<svg height="512pt" viewBox="0 0 512 512" width="512pt" xmlns="http://www.w3.org/2000/svg"><path d="m416 512h-320c-53.023438 0-96-42.976562-96-96v-320c0-53.023438 42.976562-96 96-96h320c53.023438 0 96 42.976562 96 96v320c0 53.023438-42.976562 96-96 96zm0 0" fill="#f5e6fe"/><path d="m362.671875 244.078125c-5.886719 0-10.671875-4.78125-10.671875-10.671875 0-29.917969-11.648438-58.046875-32.800781-79.199219-4.160157-4.160156-4.160157-10.910156 0-15.085937 4.160156-4.175782 10.914062-4.160156 15.089843 0 25.183594 25.183594 39.054688 58.671875 39.054688 94.285156-.015625 5.890625-4.785156 10.671875-10.671875 10.671875zm0 0" fill="#d9a4fc"/><path d="m149.328125 244.078125c-5.886719 0-10.671875-4.78125-10.671875-10.671875 0-35.613281 13.871094-69.101562 39.054688-94.285156 4.160156-4.160156 10.914062-4.160156 15.089843 0s4.160157 10.910156 0 15.085937c-21.152343 21.152344-32.800781 49.28125-32.800781 79.199219 0 5.890625-4.785156 10.671875-10.671875 10.671875zm0 0" fill="#d9a4fc"/><path d="m356.046875 308.398438c-16.125-13.628907-25.375-33.566407-25.375-54.671876v-29.726562c0-37.535156-27.886719-68.609375-64-73.808594v-11.519531c0-5.902344-4.785156-10.671875-10.671875-10.671875s-10.671875 4.769531-10.671875 10.671875v11.519531c-36.128906 5.199219-64 36.273438-64 73.808594v29.742188c0 21.105468-9.25 41.027343-25.472656 54.753906-4.144531 3.550781-6.527344 8.71875-6.527344 14.175781 0 10.289063 8.367187 18.671875 18.671875 18.671875h176c10.289062 0 18.671875-8.367188 18.671875-18.671875 0-5.457031-2.382813-10.625-6.625-14.273437zm0 0" fill="#be63f9"/><path d="m256 384c19.3125 0 35.472656-13.761719 39.183594-32h-78.382813c3.726563 18.238281 19.886719 32 39.199219 32zm0 0" fill="#d9a4fc"/></svg>